<svg width="64" height="64" viewBox="0 0 64 64" fill="none" xmlns="http://www.w3.org/2000/svg" role="img" aria-label="Hearth">
  <defs>
    <linearGradient id="iconEmber" x1="32" y1="6" x2="32" y2="58" gradientUnits="userSpaceOnUse">
      <stop offset="0" stop-color="#e58a64"/>
      <stop offset="0.55" stop-color="#dd6a3f"/>
      <stop offset="1" stop-color="#c2410c"/>
    </linearGradient>
    <linearGradient id="iconFlame" x1="32" y1="24" x2="32" y2="50" gradientUnits="userSpaceOnUse">
      <stop offset="0" stop-color="#fbe9e1"/>
      <stop offset="1" stop-color="#e58a64"/>
    </linearGradient>
  </defs>
  <rect x="0" y="0" width="64" height="64" rx="14" fill="url(#iconEmber)"/>
  <path d="M32 18 c 6 8 11 12 11 21 c 0 9-7 16-11 16 c -5 0-11-6-11-15 c 0-5 3-8 5-11 c 1 3 3 5 4 5 c 0-6-2-11 2-16 Z"
        fill="url(#iconFlame)"/>
  <path d="M32 33 c3 3 5 7 5 11 c0 5-3 8-5 8 c-2 0-5-3-5-8 c0-3 2-6 5-11 Z" fill="#9a350f"/>
</svg>
